Coordinates
version=1
nRows=8
nColumns=63
inDegrees=yes

Units are S.I. units (second, meters, Newtons, ...)
If the header above contains a line with 'inDegrees', this indicates whether rotational values are in degrees (yes) or radians (no).

endheader
time	pelvis_tilt	pelvis_list	pelvis_rotation	pelvis_tx	pelvis_ty	pelvis_tz	hip_flexion_r	hip_adduction_r	hip_rotation_r	knee_angle_r	knee_angle_r_beta	ankle_angle_r	subtalar_angle_r	mtp_angle_r	hip_flexion_l	hip_adduction_l	hip_rotation_l	knee_angle_l	knee_angle_l_beta	ankle_angle_l	subtalar_angle_l	mtp_angle_l	L5_S1_Flex_Ext	L5_S1_Lat_Bending	L5_S1_axial_rotation	L4_L5_Flex_Ext	L4_L5_Lat_Bending	L4_L5_axial_rotation	L3_L4_Flex_Ext	L3_L4_Lat_Bending	L3_L4_axial_rotation	L2_L3_Flex_Ext	L2_L3_Lat_Bending	L2_L3_axial_rotation	L1_L2_Flex_Ext	L1_L2_Lat_Bending	L1_L2_axial_rotation	L1_T12_Flex_Ext	L1_T12_Lat_Bending	L1_T12_axial_rotation	Abs_r3	Abs_r2	Abs_r1	Abs_t1	Abs_t2	neck_flexion	neck_bending	neck_rotation	arm_flex_r	arm_add_r	arm_rot_r	elbow_flex_r	pro_sup_r	wrist_flex_r	wrist_dev_r	arm_flex_l	arm_add_l	arm_rot_l	elbow_flex_l	pro_sup_l	wrist_flex_l	wrist_dev_l
1.543860	3.068999	-10.089083	95.104608	0.151515	0.665988	0.857059	-3.886706	3.071498	3.644264	8.493580	0.148241	30.151285	-15.921380	0.000000	-6.206513	-3.230783	15.444658	0.421018	0.007348	32.361850	-7.351930	0.000000	-0.340664	0.351925	-0.914036	-0.632647	0.468061	-0.971163	-0.559677	0.855671	-0.971163	-0.389345	0.855671	-0.799781	-0.316341	0.717646	-0.742654	-0.194656	0.545132	-0.685527	-2.433330	3.981050	-5.083592	0.000000	0.000000	22.514587	-2.653416	-4.045548	3.596221	-17.914569	84.528335	20.723776	26.213833	-2.316779	-1.364293	7.343037	-5.425109	147.652089	2.563137	9.355808	-17.611912	-7.391390
1.561404	3.098466	-10.142876	95.208392	0.151627	0.665877	0.857341	-3.763065	3.124086	3.315964	8.684910	0.151580	30.099403	-15.905548	0.000000	-6.164645	-3.281315	15.541686	0.439656	0.007673	32.118471	-7.659881	0.000000	-0.338387	0.349839	-0.941855	-0.628419	0.465286	-1.000721	-0.555936	0.850599	-1.000721	-0.386743	0.850599	-0.824123	-0.314226	0.713392	-0.765257	-0.193355	0.541901	-0.706391	-2.417067	3.957452	-5.238314	0.000000	0.000000	22.600702	-2.578338	-4.083067	3.701806	-17.826545	85.074214	20.583761	25.861383	-2.226927	-1.153672	7.138564	-5.333546	145.071893	2.923976	6.900688	-17.010834	-8.439129
1.578947	3.091266	-10.191219	95.314728	0.151718	0.665778	0.857602	-3.660035	3.142086	3.005826	8.885245	0.155077	30.010723	-15.891911	0.000000	-6.128423	-3.292505	15.601960	0.454991	0.007941	31.880988	-7.917563	0.000000	-0.336388	0.343054	-0.972010	-0.624706	0.456262	-1.032760	-0.552652	0.834102	-1.032760	-0.384458	0.834102	-0.850508	-0.312370	0.699556	-0.789758	-0.192212	0.531391	-0.729007	-2.402786	3.880699	-5.406025	0.000000	0.000000	22.682087	-2.485361	-4.146451	3.815535	-17.747676	85.682636	20.467069	25.696989	-2.087560	-1.006365	6.937874	-5.287782	143.008124	3.200477	4.696712	-16.482557	-9.332687
1.596491	3.055669	-10.242570	95.419405	0.151792	0.665679	0.857854	-3.562019	3.134062	2.759579	9.097648	0.158784	29.877207	-15.929073	0.000000	-6.086328	-3.271542	15.606887	0.467956	0.008167	31.672863	-8.094457	0.000000	-0.333189	0.332953	-1.000565	-0.618765	0.442828	-1.063100	-0.547396	0.809542	-1.063100	-0.380802	0.809542	-0.875494	-0.309399	0.678958	-0.812959	-0.190384	0.515744	-0.750424	-2.379936	3.766431	-5.564841	0.000000	0.000000	22.758624	-2.387854	-4.227965	3.938792	-17.674179	86.389322	20.362269	25.609117	-1.883213	-0.900602	6.773049	-5.283769	141.780713	3.381532	2.862792	-16.058704	-9.925997
1.614035	2.997408	-10.290501	95.506748	0.151837	0.665584	0.858064	-3.480342	3.101473	2.586290	9.295449	0.162236	29.722457	-15.996552	0.000000	-6.048524	-3.219290	15.509487	0.477656	0.008337	31.521146	-8.144424	0.000000	-0.329355	0.320659	-1.025187	-0.611646	0.426477	-1.089262	-0.541098	0.779651	-1.089262	-0.376420	0.779651	-0.897039	-0.305839	0.653888	-0.832965	-0.188194	0.496701	-0.768891	-2.352552	3.627361	-5.701785	0.000000	0.000000	22.820968	-2.306144	-4.344763	4.034665	-17.632249	86.954104	20.315161	25.755250	-1.632868	-0.785961	6.654185	-5.316607	141.179328	3.467878	1.797653	-15.684348	-10.163009
1.631579	2.942276	-10.316886	95.571662	0.151874	0.665511	0.858189	-3.433951	3.071800	2.508903	9.455242	0.165025	29.570323	-16.101226	0.000000	-6.034823	-3.165271	15.365281	0.484256	0.008452	31.437090	-8.114065	0.000000	-0.327148	0.309699	-1.043113	-0.607546	0.411900	-1.108308	-0.537471	0.753002	-1.108308	-0.373897	0.753002	-0.912724	-0.303789	0.631538	-0.847529	-0.186932	0.479724	-0.782335	-2.336783	3.503378	-5.801481	0.000000	0.000000	22.879321	-2.237985	-4.440092	4.107824	-17.613752	87.422008	20.297909	26.024918	-1.360084	-0.642801	6.589051	-5.380219	141.493159	3.460195	1.497259	-15.518353	-10.028031
1.649123	2.874952	-10.323107	95.602311	0.151905	0.665470	0.858202	-3.421910	3.026386	2.551590	9.566997	0.166976	29.450855	-16.239635	0.000000	-6.045322	-3.090755	15.124495	0.487997	0.008517	31.431923	-7.934293	0.000000	-0.325550	0.298261	-1.049361	-0.604579	0.396687	-1.114946	-0.534846	0.725192	-1.114946	-0.372071	0.725192	-0.918191	-0.302306	0.608214	-0.852606	-0.186019	0.462006	-0.787021	-2.325371	3.373988	-5.836232	0.000000	0.000000	22.908720	-2.178752	-4.541412	4.121125	-17.619731	87.645285	20.323935	26.499925	-1.087846	-0.457830	6.598346	-5.459056	142.659210	3.356352	2.434845	-15.434160	-9.388350
1.666667	2.821233	-10.311100	95.601407	0.151915	0.665463	0.858115	-3.438132	2.990512	2.702872	9.624387	0.167977	29.351631	-16.401259	0.000000	-6.073927	-3.020140	14.905750	0.488246	0.008521	31.487843	-7.754597	0.000000	-0.325029	0.289668	-1.049052	-0.603611	0.385259	-1.114618	-0.533990	0.704299	-1.114618	-0.371476	0.704299	-0.917921	-0.301822	0.590691	-0.852355	-0.185722	0.448696	-0.786789	-2.321649	3.276785	-5.834515	0.000000	0.000000	22.916884	-2.131703	-4.631552	4.109218	-17.656595	87.716920	20.391389	27.004377	-0.846507	-0.201006	6.651178	-5.552082	144.343381	3.167059	4.247337	-15.505969	-8.443265
